<svg width="24" height="25" viewBox="0 0 24 25" fill="none" xmlns="http://www.w3.org/2000/svg">
<path d="M21.7873 1.98003L22.3773 2.57003C23.1903 3.38403 23.0673 4.82703 22.1003 5.79303L9.93334 17.96L5.99134 19.402C5.49634 19.584 5.01434 19.348 4.91634 18.877C4.88322 18.7062 4.89882 18.5294 4.96134 18.367L6.43134 14.391L18.5643 2.25703C19.5313 1.29103 20.9743 1.16703 21.7873 1.98103V1.98003ZM9.40234 3.19003C9.53367 3.19003 9.6637 3.21589 9.78503 3.26615C9.90635 3.3164 10.0166 3.39006 10.1095 3.48292C10.2023 3.57578 10.276 3.68602 10.3262 3.80734C10.3765 3.92867 10.4023 4.0587 10.4023 4.19003C10.4023 4.32135 10.3765 4.45138 10.3262 4.57271C10.276 4.69403 10.2023 4.80427 10.1095 4.89713C10.0166 4.98999 9.90635 5.06365 9.78503 5.1139C9.6637 5.16416 9.53367 5.19003 9.40234 5.19003H5.40234C4.87191 5.19003 4.3632 5.40074 3.98813 5.77581C3.61306 6.15088 3.40234 6.65959 3.40234 7.19003V19.19C3.40234 19.7205 3.61306 20.2292 3.98813 20.6042C4.3632 20.9793 4.87191 21.19 5.40234 21.19H17.4023C17.9328 21.19 18.4415 20.9793 18.8166 20.6042C19.1916 20.2292 19.4023 19.7205 19.4023 19.19V15.19C19.4023 14.9248 19.5077 14.6705 19.6952 14.4829C19.8828 14.2954 20.1371 14.19 20.4023 14.19C20.6676 14.19 20.9219 14.2954 21.1095 14.4829C21.297 14.6705 21.4023 14.9248 21.4023 15.19V19.19C21.4023 20.2509 20.9809 21.2683 20.2308 22.0185C19.4806 22.7686 18.4632 23.19 17.4023 23.19H5.40234C4.34148 23.19 3.32406 22.7686 2.57392 22.0185C1.82377 21.2683 1.40234 20.2509 1.40234 19.19V7.19003C1.40234 6.12916 1.82377 5.11174 2.57392 4.3616C3.32406 3.61145 4.34148 3.19003 5.40234 3.19003H9.40234V3.19003Z" fill="white"/>
</svg>
