<svg width="40" height="40" viewBox="0 0 40 40" fill="none" xmlns="http://www.w3.org/2000/svg">
<path fill-rule="evenodd" clip-rule="evenodd" d="M13.5577 12.7462L17.3706 23.8775C17.6076 24.5693 18.2302 25.0303 18.9276 25.0303H25.7398C26.4636 25.0303 27.1034 24.5344 27.3197 23.806L29.962 14.9052C30.0645 14.56 29.9533 14.198 29.707 13.9779C29.5564 13.7605 29.3129 13.6193 29.0381 13.6193H15.7942C15.7356 13.6193 15.6785 13.6257 15.6233 13.6379L14.9231 11.5936C14.908 11.5466 14.8893 11.5015 14.8672 11.4585C14.802 11.3307 14.7093 11.2255 14.6 11.1483C14.5077 11.0828 14.4022 11.0364 14.2886 11.0145C14.2332 11.0037 14.1766 10.9988 14.1194 11.0002H10.8277C10.3706 11.0002 10 11.3911 10 11.8732C10 12.3554 10.3706 12.7462 10.8277 12.7462H13.5577ZM18.9276 23.2843L16.215 15.3653H28.0907L25.7398 23.2843L18.9276 23.2843Z" fill="#28231F"/>
<path d="M19.9329 27.5873C19.9329 28.5516 19.1917 29.3333 18.2774 29.3333C17.3631 29.3333 16.6219 28.5516 16.6219 27.5873C16.6219 26.623 17.3631 25.8413 18.2774 25.8413C19.1917 25.8413 19.9329 26.623 19.9329 27.5873Z" fill="#28231F"/>
<path d="M27.3826 27.5873C27.3826 28.5516 26.6414 29.3333 25.7271 29.3333C24.8128 29.3333 24.0716 28.5516 24.0716 27.5873C24.0716 26.623 24.8128 25.8413 25.7271 25.8413C26.6414 25.8413 27.3826 26.623 27.3826 27.5873Z" fill="#28231F"/>
</svg>
