<svg width="32" height="32" viewBox="0 0 32 32" fill="none" xmlns="http://www.w3.org/2000/svg">
<path fill-rule="evenodd" clip-rule="evenodd" d="M8.11857 6.84246L12.7838 20.4619C13.0737 21.3083 13.8355 21.8723 14.6888 21.8723H23.0238C23.9093 21.8723 24.6922 21.2656 24.9568 20.3744L28.1897 9.48405C28.3151 9.06158 28.179 8.61868 27.8777 8.34943C27.6935 8.08342 27.3955 7.9106 27.0593 7.9106H10.855C10.7834 7.9106 10.7134 7.91846 10.6459 7.9334L9.78914 5.43213C9.77073 5.37468 9.74781 5.31942 9.72083 5.26682C9.64105 5.11049 9.52763 4.98178 9.39384 4.88727C9.2809 4.80718 9.15183 4.75045 9.01285 4.72363C8.94513 4.71042 8.87577 4.70443 8.8058 4.70617H4.77839C4.21906 4.70617 3.76562 5.18439 3.76562 5.77431C3.76562 6.36423 4.21906 6.84246 4.77839 6.84246H8.11857ZM14.6888 19.7361L11.3699 10.0469H25.9001L23.0238 19.736L14.6888 19.7361Z" fill="white"/>
<path d="M15.9188 25.0009C15.9188 26.1808 15.012 27.1372 13.8933 27.1372C12.7746 27.1372 11.8678 26.1808 11.8678 25.0009C11.8678 23.8211 12.7746 22.8647 13.8933 22.8647C15.012 22.8647 15.9188 23.8211 15.9188 25.0009Z" fill="white"/>
<path d="M25.0337 25.0009C25.0337 26.1808 24.1268 27.1372 23.0082 27.1372C21.8895 27.1372 20.9826 26.1808 20.9826 25.0009C20.9826 23.8211 21.8895 22.8647 23.0082 22.8647C24.1268 22.8647 25.0337 23.8211 25.0337 25.0009Z" fill="white"/>
</svg>
