<svg width="32" height="32" viewBox="0 0 32 32" fill="none" xmlns="http://www.w3.org/2000/svg">
<path d="M17.342 4.11841C17.108 4.11841 16.918 4.30849 16.918 4.54273C16.918 4.56449 16.9272 4.58337 16.9304 4.60449H16.918V14.6646C16.918 14.8989 17.108 15.089 17.342 15.089H27.4018V15.0765C27.4229 15.0797 27.4418 15.089 27.4639 15.089C27.6978 15.089 27.8879 14.8989 27.8879 14.6646C27.8277 8.86625 23.1404 4.17889 17.342 4.11841V4.11841Z" fill="white"/>
<path d="M25.4362 17.1072C25.4362 16.873 25.2464 16.6829 25.0122 16.6829H15.7645C15.652 16.6828 15.5442 16.638 15.4646 16.5585C15.3851 16.4789 15.3405 16.371 15.3405 16.2586V7.0448H15.328C15.3312 7.02368 15.3405 7.0048 15.3405 6.98304C15.3405 6.74848 15.1504 6.55872 14.9162 6.55872C14.9059 6.55872 14.8976 6.56384 14.8877 6.56448V6.5616C14.8499 6.56128 14.8125 6.55872 14.7747 6.55872C8.88672 6.55872 4.11328 11.3322 4.11328 17.2202C4.11328 23.1082 8.88672 27.8816 14.7747 27.8816C20.6627 27.8816 25.4362 23.1082 25.4362 17.2202C25.4362 17.1862 25.4346 17.1526 25.4339 17.1184C25.4339 17.1142 25.4362 17.111 25.4362 17.1072Z" fill="white"/>
</svg>
