<svg width="32" height="32" viewBox="0 0 32 32" fill="none" xmlns="http://www.w3.org/2000/svg">
<path d="M25.7873 5.48003L26.3773 6.07003C27.1903 6.88403 27.0673 8.32703 26.1003 9.29303L13.9333 21.46L9.99134 22.902C9.49634 23.084 9.01434 22.848 8.91634 22.377C8.88322 22.2062 8.89882 22.0294 8.96134 21.867L10.4313 17.891L22.5643 5.75703C23.5313 4.79103 24.9743 4.66703 25.7873 5.48103V5.48003ZM13.4023 6.69003C13.5337 6.69003 13.6637 6.71589 13.785 6.76615C13.9064 6.8164 14.0166 6.89006 14.1095 6.98292C14.2023 7.07578 14.276 7.18602 14.3262 7.30734C14.3765 7.42867 14.4023 7.5587 14.4023 7.69003C14.4023 7.82135 14.3765 7.95138 14.3262 8.07271C14.276 8.19403 14.2023 8.30427 14.1095 8.39713C14.0166 8.48999 13.9064 8.56365 13.785 8.6139C13.6637 8.66416 13.5337 8.69003 13.4023 8.69003H9.40234C8.87191 8.69003 8.3632 8.90074 7.98813 9.27581C7.61306 9.65088 7.40234 10.1596 7.40234 10.69V22.69C7.40234 23.2205 7.61306 23.7292 7.98813 24.1042C8.3632 24.4793 8.87191 24.69 9.40234 24.69H21.4023C21.9328 24.69 22.4415 24.4793 22.8166 24.1042C23.1916 23.7292 23.4023 23.2205 23.4023 22.69V18.69C23.4023 18.4248 23.5077 18.1705 23.6952 17.9829C23.8828 17.7954 24.1371 17.69 24.4023 17.69C24.6676 17.69 24.9219 17.7954 25.1095 17.9829C25.297 18.1705 25.4023 18.4248 25.4023 18.69V22.69C25.4023 23.7509 24.9809 24.7683 24.2308 25.5185C23.4806 26.2686 22.4632 26.69 21.4023 26.69H9.40234C8.34148 26.69 7.32406 26.2686 6.57392 25.5185C5.82377 24.7683 5.40234 23.7509 5.40234 22.69V10.69C5.40234 9.62916 5.82377 8.61174 6.57392 7.8616C7.32406 7.11145 8.34148 6.69003 9.40234 6.69003H13.4023V6.69003Z" fill="white"/>
</svg>
