<svg width="32" height="32" viewBox="0 0 32 32" fill="none" xmlns="http://www.w3.org/2000/svg">
<path d="M19.325 20.275C19.1417 20.0583 19.05 19.8123 19.05 19.537C19.05 19.2623 19.1417 19.0333 19.325 18.85L21.175 17H14C13.7167 17 13.4793 16.904 13.288 16.712C13.096 16.5207 13 16.2833 13 16C13 15.7167 13.096 15.479 13.288 15.287C13.4793 15.0957 13.7167 15 14 15H21.175L19.325 13.15C19.125 12.95 19.025 12.7127 19.025 12.438C19.025 12.1627 19.125 11.925 19.325 11.725C19.5083 11.525 19.7377 11.425 20.013 11.425C20.2877 11.425 20.5167 11.5167 20.7 11.7L24.3 15.3C24.4 15.4 24.471 15.5083 24.513 15.625C24.5543 15.7417 24.575 15.8667 24.575 16C24.575 16.1333 24.5543 16.2583 24.513 16.375C24.471 16.4917 24.4 16.6 24.3 16.7L20.7 20.3C20.4833 20.5167 20.246 20.6123 19.988 20.587C19.7293 20.5623 19.5083 20.4583 19.325 20.275ZM9 25C8.45 25 7.979 24.8043 7.587 24.413C7.19567 24.021 7 23.55 7 23V9C7 8.45 7.19567 7.979 7.587 7.587C7.979 7.19567 8.45 7 9 7H15C15.2833 7 15.521 7.09567 15.713 7.287C15.9043 7.479 16 7.71667 16 8C16 8.28333 15.9043 8.52067 15.713 8.712C15.521 8.904 15.2833 9 15 9H9V23H15C15.2833 23 15.521 23.096 15.713 23.288C15.9043 23.4793 16 23.7167 16 24C16 24.2833 15.9043 24.5207 15.713 24.712C15.521 24.904 15.2833 25 15 25H9Z" fill="white"/>
</svg>
