<svg width="32" height="32" viewBox="0 0 32 32" fill="none" xmlns="http://www.w3.org/2000/svg">
<path d="M7.10543 18.7357C7.38931 16.7675 9.07591 15.3067 11.0645 15.3067H21.7355C23.7241 15.3067 25.4107 16.7675 25.6946 18.7357L26.6352 25.2573C26.7221 25.8601 26.2545 26.4 25.6454 26.4H7.15458C6.54549 26.4 6.07787 25.8601 6.16482 25.2573L7.10543 18.7357Z" stroke="white" stroke-width="2"/>
<path d="M16.3984 14.8689L16.3984 11.84" stroke="white" stroke-width="2" stroke-linecap="round"/>
<path d="M15.8486 6.38873C16.1847 5.98019 16.8102 5.98019 17.1462 6.38873V6.38873C18.2621 7.74527 18.2621 9.51254 17.1462 10.8691V10.8691C16.8102 11.2776 16.1847 11.2776 15.8486 10.8691V10.8691C14.7327 9.51254 14.7327 7.74527 15.8486 6.38873V6.38873Z" fill="white"/>
<path d="M15.0108 19.1451L15.4592 18.2512L15.0108 18.0263L14.5624 18.2512L15.0108 19.1451ZM17.7843 19.1443L18.2332 18.2507L17.7843 18.0252L17.3353 18.2507L17.7843 19.1443ZM20.5593 19.1443L21.0082 18.2507L20.5593 18.0252L20.1103 18.2507L20.5593 19.1443ZM24.6949 17.3843L25.6831 17.5375L25.7352 17.2016L25.5718 16.9036L24.6949 17.3843ZM8.10547 17.3882L7.22805 16.9085L7.0648 17.2071L7.11756 17.5433L8.10547 17.3882ZM12.239 19.1451L12.6873 18.2512L12.239 18.0263L11.7906 18.2512L12.239 19.1451ZM14.5624 18.2512C14.2948 18.3855 13.9751 18.4667 13.6249 18.4667V20.4667C14.2844 20.4667 14.9114 20.3137 15.4592 20.0389L14.5624 18.2512ZM16.3968 18.4667C16.0465 18.4667 15.7268 18.3855 15.4592 18.2512L14.5624 20.0389C15.1103 20.3137 15.7373 20.4667 16.3968 20.4667V18.4667ZM17.3353 18.2507C17.0675 18.3853 16.7475 18.4667 16.3968 18.4667V20.4667C17.0571 20.4667 17.6848 20.3133 18.2332 20.0378L17.3353 18.2507ZM19.1718 18.4667C18.8211 18.4667 18.501 18.3853 18.2332 18.2507L17.3353 20.0378C17.8837 20.3133 18.5115 20.4667 19.1718 20.4667V18.4667ZM20.1103 18.2507C19.8425 18.3853 19.5225 18.4667 19.1718 18.4667V20.4667C19.8321 20.4667 20.4598 20.3133 21.0082 20.0378L20.1103 18.2507ZM21.9468 18.4667C21.5961 18.4667 21.276 18.3853 21.0082 18.2507L20.1103 20.0378C20.6587 20.3133 21.2865 20.4667 21.9468 20.4667V18.4667ZM23.7067 17.2311C23.6145 17.8261 22.9596 18.4667 21.9468 18.4667V20.4667C23.7439 20.4667 25.4109 19.294 25.6831 17.5375L23.7067 17.2311ZM21.1865 16.3067C22.3078 16.3067 23.3034 16.9263 23.8181 17.865L25.5718 16.9036C24.7156 15.3417 23.0577 14.3067 21.1865 14.3067V16.3067ZM11.6161 16.3067H21.1865V14.3067H11.6161V16.3067ZM8.98289 17.868C9.49702 16.9276 10.4936 16.3067 11.6161 16.3067V14.3067C9.74292 14.3067 8.08348 15.3439 7.22805 16.9085L8.98289 17.868ZM10.853 18.4667C9.84149 18.4667 9.18665 17.8275 9.09338 17.2332L7.11756 17.5433C7.39275 19.2967 9.05773 20.4667 10.853 20.4667V18.4667ZM11.7906 18.2512C11.5229 18.3855 11.2033 18.4667 10.853 18.4667V20.4667C11.5125 20.4667 12.1395 20.3137 12.6874 20.0389L11.7906 18.2512ZM13.6249 18.4667C13.2747 18.4667 12.955 18.3855 12.6873 18.2512L11.7906 20.0389C12.3384 20.3137 12.9654 20.4667 13.6249 20.4667V18.4667Z" fill="white"/>
</svg>
