<svg width="32" height="32" viewBox="0 0 32 32" fill="none" xmlns="http://www.w3.org/2000/svg">
<path d="M16.94 26H15.05C14.6044 26 14.1771 25.823 13.8621 25.5079C13.547 25.1929 13.37 24.7656 13.37 24.32V23.23C13.3646 23.1658 13.341 23.1044 13.3021 23.0531C13.2631 23.0017 13.2104 22.9625 13.15 22.94C13.0888 22.9008 13.0177 22.88 12.945 22.88C12.8723 22.88 12.8012 22.9008 12.74 22.94L12 23.74C11.8448 23.8963 11.6602 24.0204 11.4568 24.105C11.2534 24.1897 11.0353 24.2333 10.815 24.2333C10.5947 24.2333 10.3766 24.1897 10.1732 24.105C9.96984 24.0204 9.78522 23.8963 9.63 23.74L8.26 22.4C8.10142 22.2451 7.97547 22.06 7.8896 21.8556C7.80372 21.6512 7.75966 21.4317 7.76 21.21C7.76064 20.7565 7.94034 20.3217 8.26 20L9 19.26C9.03573 19.2049 9.05474 19.1407 9.05474 19.075C9.05474 19.0093 9.03573 18.9451 9 18.89C8.94 18.74 8.84 18.63 8.7 18.63H7.68C7.23352 18.6274 6.80623 18.4481 6.49145 18.1315C6.17667 17.8148 5.99999 17.3865 6 16.94V15.05C6 14.6044 6.177 14.1771 6.49206 13.8621C6.80712 13.547 7.23444 13.37 7.68 13.37H8.77C8.83422 13.3646 8.89558 13.341 8.94692 13.3021C8.99827 13.2631 9.03748 13.2104 9.06 13.15C9.0992 13.0888 9.12004 13.0177 9.12004 12.945C9.12004 12.8723 9.0992 12.8012 9.06 12.74L8.26 12C8.10368 11.8448 7.97962 11.6602 7.89497 11.4568C7.81031 11.2534 7.76672 11.0353 7.76672 10.815C7.76672 10.5947 7.81031 10.3766 7.89497 10.1732C7.97962 9.96984 8.10368 9.78522 8.26 9.63L9.6 8.26C9.7534 8.10217 9.93682 7.97663 10.1395 7.89076C10.3421 7.80489 10.5599 7.76043 10.78 7.76C11.0062 7.75901 11.2305 7.80266 11.4398 7.88846C11.6492 7.97426 11.8395 8.10052 12 8.26L12.74 9C12.7951 9.03573 12.8593 9.05474 12.925 9.05474C12.9907 9.05474 13.0549 9.03573 13.11 9C13.26 8.94 13.37 8.84 13.37 8.7V7.68C13.3726 7.23352 13.5519 6.80623 13.8685 6.49145C14.1852 6.17667 14.6135 5.99999 15.06 6H17C17.4456 6 17.8729 6.177 18.1879 6.49206C18.503 6.80712 18.68 7.23444 18.68 7.68V8.77C18.6854 8.83422 18.709 8.89558 18.7479 8.94692C18.7869 8.99827 18.8396 9.03748 18.9 9.06C18.9612 9.0992 19.0323 9.12004 19.105 9.12004C19.1777 9.12004 19.2488 9.0992 19.31 9.06L20 8.26C20.1552 8.10368 20.3398 7.97962 20.5432 7.89497C20.7466 7.81031 20.9647 7.76672 21.185 7.76672C21.4053 7.76672 21.6234 7.81031 21.8268 7.89497C22.0302 7.97962 22.2148 8.10368 22.37 8.26L23.74 9.6C23.8981 9.75526 24.0238 9.94043 24.1096 10.1447C24.1955 10.349 24.2398 10.5684 24.24 10.79C24.2448 11.0153 24.2029 11.2391 24.1168 11.4474C24.0308 11.6557 23.9025 11.8438 23.74 12L23 12.74C22.9643 12.7951 22.9453 12.8593 22.9453 12.925C22.9453 12.9907 22.9643 13.0549 23 13.11C23.06 13.26 23.16 13.37 23.3 13.37H24.39C24.8242 13.3906 25.2338 13.5777 25.5336 13.8924C25.8335 14.2071 26.0005 14.6253 26 15.06V17C26 17.4456 25.823 17.8729 25.5079 18.1879C25.1929 18.503 24.7656 18.68 24.32 18.68H23.23C23.1658 18.6854 23.1044 18.709 23.0531 18.7479C23.0017 18.7869 22.9625 18.8396 22.94 18.9C22.9043 18.9551 22.8853 19.0193 22.8853 19.085C22.8853 19.1507 22.9043 19.2149 22.94 19.27L23.71 20.04C23.8663 20.1952 23.9904 20.3798 24.075 20.5832C24.1597 20.7866 24.2033 21.0047 24.2033 21.225C24.2033 21.4453 24.1597 21.6634 24.075 21.8668C23.9904 22.0702 23.8663 22.2548 23.71 22.41L22.4 23.74C22.2466 23.8978 22.0632 24.0234 21.8605 24.1092C21.6579 24.1951 21.4401 24.2396 21.22 24.24C20.7735 24.2341 20.3467 24.0548 20.03 23.74L19.26 23C19.2049 22.9643 19.1407 22.9453 19.075 22.9453C19.0093 22.9453 18.9451 22.9643 18.89 23C18.74 23.06 18.63 23.16 18.63 23.3V24.39C18.6094 24.8242 18.4223 25.2338 18.1076 25.5336C17.7929 25.8335 17.3747 26.0005 16.94 26ZM15.37 24H16.63V23.23C16.6343 22.7689 16.7753 22.3193 17.0352 21.9384C17.2951 21.5574 17.6622 21.2622 18.09 21.09C18.5196 20.9022 18.9953 20.8467 19.4566 20.9304C19.9179 21.0141 20.3438 21.2333 20.68 21.56L21.22 22.1L22.1 21.22L21.56 20.67C21.2353 20.3389 21.0164 19.9188 20.9309 19.463C20.8454 19.0072 20.8973 18.5362 21.08 18.11C21.2537 17.6841 21.5497 17.3191 21.9305 17.061C22.3113 16.803 22.76 16.6634 23.22 16.66H24V15.37H23.23C22.7689 15.3657 22.3193 15.2247 21.9384 14.9648C21.5574 14.7049 21.2622 14.3378 21.09 13.91C20.9022 13.4804 20.8467 13.0047 20.9304 12.5434C21.0141 12.0821 21.2333 11.6562 21.56 11.32L22.1 10.78L21.22 9.9L20.67 10.44C20.3337 10.7472 19.9167 10.9518 19.468 11.03C19.0193 11.1081 18.5576 11.0563 18.1373 10.8809C17.717 10.7054 17.3556 10.4135 17.0957 10.0395C16.8357 9.66555 16.688 9.22509 16.67 8.77V8H15.37V8.77C15.3657 9.23115 15.2247 9.68066 14.9648 10.0616C14.7049 10.4426 14.3378 10.7378 13.91 10.91C13.4804 11.0978 13.0047 11.1533 12.5434 11.0696C12.0821 10.9859 11.6562 10.7667 11.32 10.44L10.78 9.9L9.9 10.78L10.44 11.33C10.7472 11.6663 10.9518 12.0833 11.03 12.532C11.1081 12.9807 11.0563 13.4424 10.8809 13.8627C10.7054 14.283 10.4135 14.6444 10.0395 14.9043C9.66555 15.1643 9.22509 15.312 8.77 15.33H8V16.59H8.77C9.23115 16.5943 9.68066 16.7353 10.0616 16.9952C10.4426 17.2551 10.7378 17.6222 10.91 18.05C11.0978 18.4796 11.1533 18.9553 11.0696 19.4166C10.9859 19.8779 10.7667 20.3038 10.44 20.64L9.9 21.18L10.78 22.06L11.33 21.52C11.6663 21.2128 12.0833 21.0082 12.532 20.93C12.9807 20.8519 13.4424 20.9037 13.8627 21.0791C14.283 21.2546 14.6444 21.5465 14.9043 21.9205C15.1643 22.2945 15.312 22.7349 15.33 23.19L15.37 24Z" fill="white"/>
<path d="M16 19.5C15.3078 19.5 14.6311 19.2947 14.0555 18.9101C13.4799 18.5256 13.0313 17.9789 12.7664 17.3394C12.5015 16.6999 12.4322 15.9961 12.5673 15.3172C12.7023 14.6383 13.0356 14.0146 13.5251 13.5251C14.0146 13.0356 14.6383 12.7023 15.3172 12.5673C15.9961 12.4322 16.6999 12.5015 17.3394 12.7664C17.9789 13.0313 18.5256 13.4799 18.9101 14.0555C19.2947 14.6311 19.5 15.3078 19.5 16C19.5 16.9283 19.1313 17.8185 18.4749 18.4749C17.8185 19.1313 16.9283 19.5 16 19.5ZM16 14.5C15.7033 14.5 15.4133 14.588 15.1666 14.7528C14.92 14.9176 14.7277 15.1519 14.6142 15.426C14.5007 15.7001 14.4709 16.0017 14.5288 16.2926C14.5867 16.5836 14.7296 16.8509 14.9393 17.0607C15.1491 17.2704 15.4164 17.4133 15.7074 17.4712C15.9983 17.5291 16.2999 17.4994 16.574 17.3858C16.8481 17.2723 17.0824 17.08 17.2472 16.8334C17.412 16.5867 17.5 16.2967 17.5 16C17.5 15.6022 17.342 15.2206 17.0607 14.9393C16.7794 14.658 16.3978 14.5 16 14.5Z" fill="white"/>
</svg>
