<svg width="32" height="32" viewBox="0 0 32 32" fill="none" xmlns="http://www.w3.org/2000/svg">
<path fill-rule="evenodd" clip-rule="evenodd" d="M26.8 15.7225C26.8 15.8041 26.799 15.8855 26.797 15.9666C26.799 16.0482 26.8 16.1301 26.8 16.2122C26.8 21.8388 22.1438 26.4 16.4 26.4C10.6562 26.4 6 21.8388 6 16.2122C6 16.1301 6.00099 16.0482 6.00296 15.9666C6.00099 15.8855 6 15.8041 6 15.7225C6 10.132 10.6562 5.59998 16.4 5.59998C22.1438 5.59998 26.8 10.132 26.8 15.7225ZM9.84314 21.7402C11.232 19.59 13.6498 18.1666 16.4 18.1666C19.1502 18.1666 21.568 19.59 22.9569 21.7402C21.3732 23.5283 19.0318 24.6666 16.4 24.6666C13.7682 24.6666 11.4268 23.5283 9.84314 21.7402ZM16.4 17.3C18.5539 17.3 20.3 15.5539 20.3 13.4C20.3 11.2461 18.5539 9.49998 16.4 9.49998C14.2461 9.49998 12.5 11.2461 12.5 13.4C12.5 15.5539 14.2461 17.3 16.4 17.3Z" fill="white"/>
</svg>
