<svg width="41" height="40" viewBox="0 0 41 40" fill="none" xmlns="http://www.w3.org/2000/svg">
<path d="M23.825 24.275C23.6417 24.0583 23.55 23.8123 23.55 23.537C23.55 23.2623 23.6417 23.0333 23.825 22.85L25.675 21H18.5C18.2167 21 17.9793 20.904 17.788 20.712C17.596 20.5207 17.5 20.2833 17.5 20C17.5 19.7167 17.596 19.479 17.788 19.287C17.9793 19.0957 18.2167 19 18.5 19H25.675L23.825 17.15C23.625 16.95 23.525 16.7127 23.525 16.438C23.525 16.1627 23.625 15.925 23.825 15.725C24.0083 15.525 24.2377 15.425 24.513 15.425C24.7877 15.425 25.0167 15.5167 25.2 15.7L28.8 19.3C28.9 19.4 28.971 19.5083 29.013 19.625C29.0543 19.7417 29.075 19.8667 29.075 20C29.075 20.1333 29.0543 20.2583 29.013 20.375C28.971 20.4917 28.9 20.6 28.8 20.7L25.2 24.3C24.9833 24.5167 24.746 24.6123 24.488 24.587C24.2293 24.5623 24.0083 24.4583 23.825 24.275ZM13.5 29C12.95 29 12.479 28.8043 12.087 28.413C11.6957 28.021 11.5 27.55 11.5 27V13C11.5 12.45 11.6957 11.979 12.087 11.587C12.479 11.1957 12.95 11 13.5 11H19.5C19.7833 11 20.021 11.0957 20.213 11.287C20.4043 11.479 20.5 11.7167 20.5 12C20.5 12.2833 20.4043 12.5207 20.213 12.712C20.021 12.904 19.7833 13 19.5 13H13.5V27H19.5C19.7833 27 20.021 27.096 20.213 27.288C20.4043 27.4793 20.5 27.7167 20.5 28C20.5 28.2833 20.4043 28.5207 20.213 28.712C20.021 28.904 19.7833 29 19.5 29H13.5Z" fill="#28231F"/>
</svg>
