<svg width="40" height="40" viewBox="0 0 40 40" fill="none" xmlns="http://www.w3.org/2000/svg">
<rect x="4" y="2.22223" width="32" height="35.5556" rx="2" fill="#262423"/>
<path d="M27.9488 10.1536L28.164 14.7718H27.6188C27.5136 13.9585 27.3701 13.3776 27.1884 13.0291C26.8918 12.4675 26.4949 12.056 25.9975 11.7946C25.5096 11.5235 24.864 11.388 24.0605 11.388H21.32V26.4336C21.32 27.6438 21.4491 28.399 21.7074 28.6991C22.0709 29.1057 22.6305 29.3091 23.3861 29.3091H24.0605V29.8464H15.8104V29.3091H16.4991C17.3217 29.3091 17.9052 29.0573 18.2495 28.5539C18.46 28.2441 18.5652 27.5373 18.5652 26.4336V11.388H16.2264C15.3177 11.388 14.6721 11.4558 14.2895 11.5913C13.7921 11.7753 13.3664 12.1287 13.0125 12.6515C12.6586 13.1743 12.4481 13.8811 12.3812 14.7718H11.8359L12.0655 10.1536H27.9488Z" fill="white"/>
<rect x="4" y="2.22223" width="32" height="35.5556" rx="2" stroke="#262423"/>
</svg>
