<svg width="40" height="40" viewBox="0 0 40 40" fill="none" xmlns="http://www.w3.org/2000/svg">
<rect x="7" y="7" width="26" height="26" rx="13" fill="#34302E"/>
<path d="M23.7012 15.8926V18.2222H23.4727C23.3372 17.6847 23.187 17.2996 23.022 17.0669C22.8569 16.8299 22.6305 16.6416 22.3428 16.502C22.182 16.4258 21.9006 16.3877 21.4985 16.3877H20.8574V23.0273C20.8574 23.4674 20.8807 23.7425 20.9272 23.8525C20.978 23.9626 21.0732 24.0599 21.2129 24.1445C21.3568 24.2249 21.5514 24.2651 21.7969 24.2651H22.0825V24.5H17.5757V24.2651H17.8613C18.111 24.2651 18.312 24.2207 18.4644 24.1318C18.5744 24.0726 18.6611 23.971 18.7246 23.8271C18.7712 23.7256 18.7944 23.459 18.7944 23.0273V16.3877H18.1724C17.5926 16.3877 17.1715 16.5104 16.9092 16.7559C16.541 17.0986 16.3083 17.5874 16.2109 18.2222H15.9697V15.8926H23.7012Z" fill="white"/>
</svg>
