<svg width="40" height="40" viewBox="0 0 40 40" fill="none" xmlns="http://www.w3.org/2000/svg">
<path fill-rule="evenodd" clip-rule="evenodd" d="M32 20.7065C32 20.7928 31.999 20.8789 31.9969 20.9647C31.999 21.051 32 21.1376 32 21.2245C32 27.1756 27.0751 32 21 32C14.9249 32 10 27.1756 10 21.2245C10 21.1376 10.001 21.051 10.0031 20.9647C10.001 20.8789 10 20.7928 10 20.7065C10 14.7935 14.9249 10 21 10C27.0751 10 32 14.7935 32 20.7065ZM14.0649 27.0714C15.5338 24.7971 18.0911 23.2916 21 23.2916C23.9089 23.2916 26.4662 24.7971 27.9351 27.0714C26.2601 28.9627 23.7836 30.1667 21 30.1667C18.2164 30.1667 15.7399 28.9627 14.0649 27.0714ZM21 22.375C23.2782 22.375 25.125 20.5282 25.125 18.25C25.125 15.9718 23.2782 14.125 21 14.125C18.7218 14.125 16.875 15.9718 16.875 18.25C16.875 20.5282 18.7218 22.375 21 22.375Z" fill="#28231F"/>
</svg>
