<svg width="41" height="40" viewBox="0 0 41 40" fill="none" xmlns="http://www.w3.org/2000/svg">
<path d="M13.4169 22.1226C13.614 20.6305 14.8861 19.5154 16.3911 19.5154H24.6089C26.1139 19.5154 27.386 20.6305 27.5831 22.1226L28.3593 28L12.6407 28L13.4169 22.1226Z" stroke="#28231F" stroke-width="2"/>
<path d="M20.5 18.8636L20.5 16.2424" stroke="#28231F" stroke-width="2" stroke-linecap="round"/>
<path d="M19.9391 11.6825C20.2299 11.329 20.7712 11.329 21.062 11.6826C22.0277 12.8565 22.0277 14.3858 21.062 15.5598C20.7712 15.9133 20.2299 15.9133 19.9391 15.5598C18.9734 14.3858 18.9734 12.8565 19.9391 11.6825Z" fill="#28231F"/>
<mask id="path-4-inside-1_156_20854" fill="white">
<path fill-rule="evenodd" clip-rule="evenodd" d="M16.3909 22.4446C16.0127 22.6677 15.5736 22.7953 15.1052 22.7953C13.9408 22.7953 12.9571 22.0063 12.6406 20.9242C13.3278 19.6852 14.648 18.8635 16.1397 18.8635H24.3575C25.8488 18.8635 27.1685 19.6846 27.8559 20.9229C27.5399 22.0057 26.5559 22.7953 25.3909 22.7953C24.9226 22.7953 24.4835 22.6677 24.1052 22.4446C23.727 22.6677 23.2879 22.7953 22.8195 22.7953C22.3511 22.7953 21.912 22.6677 21.5338 22.4446C21.1556 22.6677 20.7165 22.7953 20.2481 22.7953C19.7797 22.7953 19.3406 22.6677 18.9624 22.4446C18.5842 22.6677 18.145 22.7953 17.6767 22.7953C17.2083 22.7953 16.7692 22.6677 16.3909 22.4446Z"/>
</mask>
<path d="M16.3909 22.4446L17.4068 20.7218L16.3909 20.1228L15.3751 20.7218L16.3909 22.4446ZM12.6406 20.9242L10.8916 19.9541L10.4867 20.6843L10.721 21.4856L12.6406 20.9242ZM27.8559 20.9229L29.7758 21.4833L30.0097 20.682L29.6045 19.9521L27.8559 20.9229ZM24.1052 22.4446L25.1211 20.7218L24.1052 20.1228L23.0894 20.7218L24.1052 22.4446ZM21.5338 22.4446L22.5497 20.7218L21.5338 20.1228L20.5179 20.7218L21.5338 22.4446ZM18.9624 22.4446L19.9782 20.7218L18.9624 20.1228L17.9465 20.7218L18.9624 22.4446ZM15.1052 24.7953C15.9422 24.7953 16.7307 24.5661 17.4068 24.1674L15.3751 20.7218C15.2948 20.7692 15.205 20.7953 15.1052 20.7953V24.7953ZM10.721 21.4856C11.2737 23.3754 13.0064 24.7953 15.1052 24.7953V20.7953C14.8751 20.7953 14.6405 20.6373 14.5602 20.3628L10.721 21.4856ZM14.3896 21.8943C14.7346 21.2723 15.3958 20.8635 16.1397 20.8635V16.8635C13.9002 16.8635 11.9211 18.0981 10.8916 19.9541L14.3896 21.8943ZM16.1397 20.8635H24.3575V16.8635H16.1397V20.8635ZM24.3575 20.8635C25.1012 20.8635 25.7622 21.272 26.1073 21.8936L29.6045 19.9521C28.5748 18.0972 26.5963 16.8635 24.3575 16.8635V20.8635ZM25.3909 24.7953C27.4906 24.7953 29.2238 23.3742 29.7758 21.4833L25.9361 20.3625C25.8559 20.6371 25.6211 20.7953 25.3909 20.7953V24.7953ZM23.0894 24.1674C23.7655 24.5661 24.554 24.7953 25.3909 24.7953V20.7953C25.2912 20.7953 25.2014 20.7692 25.1211 20.7218L23.0894 24.1674ZM22.8195 24.7953C23.6565 24.7953 24.445 24.5661 25.1211 24.1674L23.0894 20.7218C23.009 20.7692 22.9193 20.7953 22.8195 20.7953V24.7953ZM20.5179 24.1674C21.1941 24.5661 21.9825 24.7953 22.8195 24.7953V20.7953C22.7198 20.7953 22.63 20.7692 22.5497 20.7218L20.5179 24.1674ZM20.2481 24.7953C21.0851 24.7953 21.8735 24.5661 22.5497 24.1674L20.5179 20.7218C20.4376 20.7692 20.3479 20.7953 20.2481 20.7953V24.7953ZM17.9465 24.1674C18.6226 24.5661 19.4111 24.7953 20.2481 24.7953V20.7953C20.1483 20.7953 20.0586 20.7692 19.9782 20.7218L17.9465 24.1674ZM17.6767 24.7953C18.5136 24.7953 19.3021 24.5661 19.9782 24.1674L17.9465 20.7218C17.8662 20.7692 17.7764 20.7953 17.6767 20.7953V24.7953ZM15.3751 24.1674C16.0512 24.5661 16.8397 24.7953 17.6767 24.7953V20.7953C17.5769 20.7953 17.4871 20.7692 17.4068 20.7218L15.3751 24.1674Z" fill="#28231F" mask="url(#path-4-inside-1_156_20854)"/>
</svg>
