<svg width="27" height="27" viewBox="0 0 27 27" fill="none" xmlns="http://www.w3.org/2000/svg">
<path d="M3.2917 12.5158L18.437 7.43504C18.59 7.38361 18.7561 7.37715 18.9162 7.41641C19.0763 7.45567 19.2238 7.53905 19.3417 7.6569C19.4595 7.77476 19.5429 7.92227 19.5822 8.08238C19.6215 8.24248 19.615 8.40865 19.5636 8.56165L14.4828 23.7069C14.4308 23.8622 14.3347 23.9976 14.2058 24.0968C14.0769 24.1961 13.9207 24.2551 13.7559 24.2667C13.591 24.2784 13.4243 24.2423 13.2757 24.1627C13.1272 24.0832 13.0029 23.9634 12.9177 23.8178L10.0703 18.9468C10.0354 18.8871 10.0184 18.8192 10.0215 18.7514C10.0246 18.6837 10.0476 18.6192 10.0877 18.5659L14.2955 12.9727C14.313 12.9492 14.3239 12.9213 14.3272 12.8918C14.3304 12.8623 14.326 12.8321 14.3142 12.8042L14.2919 12.7646C14.2678 12.733 14.234 12.7099 14.1961 12.6993C14.1581 12.6887 14.1181 12.6911 14.0827 12.7061L14.0488 12.725L8.46049 16.9281C8.40719 16.968 8.34271 16.9909 8.27506 16.9939C8.20741 16.9969 8.13958 16.9799 8.08 16.945L3.18127 14.0814C3.0355 13.9963 2.91562 13.8721 2.8359 13.7234C2.75617 13.5748 2.71998 13.4081 2.73161 13.2431C2.74325 13.0781 2.80223 12.9219 2.90153 12.7929C3.00083 12.664 3.13627 12.5677 3.2917 12.5158Z" fill="white"/>
</svg>
