<svg width="40" height="40" viewBox="0 0 40 40" fill="none" xmlns="http://www.w3.org/2000/svg">
<mask id="path-1-inside-1_758_15101" fill="white">
<path fill-rule="evenodd" clip-rule="evenodd" d="M20 31.4395C26.6274 31.4395 32 26.0669 32 19.4395C32 12.812 26.6274 7.43945 20 7.43945C13.3726 7.43945 8 12.812 8 19.4395C8 23.2606 9.78597 26.6645 12.5687 28.8622V31.559C12.5687 32.3288 13.402 32.8099 14.0687 32.425L16.6144 30.9552C17.6881 31.2704 18.8243 31.4395 20 31.4395Z"/>
</mask>
<path fill-rule="evenodd" clip-rule="evenodd" d="M20 31.4395C26.6274 31.4395 32 26.0669 32 19.4395C32 12.812 26.6274 7.43945 20 7.43945C13.3726 7.43945 8 12.812 8 19.4395C8 23.2606 9.78597 26.6645 12.5687 28.8622V31.559C12.5687 32.3288 13.402 32.8099 14.0687 32.425L16.6144 30.9552C17.6881 31.2704 18.8243 31.4395 20 31.4395Z" fill="#28231F"/>
<path d="M12.5687 28.8622H14.5687V27.8932L13.8082 27.2926L12.5687 28.8622ZM14.0687 32.425L13.0687 30.6929L13.0687 30.6929L14.0687 32.425ZM16.6144 30.9552L17.1777 29.0362L16.356 28.795L15.6144 29.2232L16.6144 30.9552ZM30 19.4395C30 24.9623 25.5228 29.4395 20 29.4395V33.4395C27.732 33.4395 34 27.1714 34 19.4395H30ZM20 9.43945C25.5228 9.43945 30 13.9166 30 19.4395H34C34 11.7075 27.732 5.43945 20 5.43945V9.43945ZM10 19.4395C10 13.9166 14.4772 9.43945 20 9.43945V5.43945C12.268 5.43945 6 11.7075 6 19.4395H10ZM13.8082 27.2926C11.4851 25.4579 10 22.6227 10 19.4395H6C6 23.8984 8.08683 27.8712 11.3292 30.4317L13.8082 27.2926ZM14.5687 31.559V28.8622H10.5687V31.559H14.5687ZM13.0687 30.6929C13.7354 30.308 14.5687 30.7892 14.5687 31.559H10.5687C10.5687 33.8684 13.0687 35.3117 15.0687 34.157L13.0687 30.6929ZM15.6144 29.2232L13.0687 30.6929L15.0687 34.157L17.6144 32.6873L15.6144 29.2232ZM20 29.4395C19.017 29.4395 18.0704 29.2982 17.1777 29.0362L16.0511 32.8743C17.3059 33.2426 18.6317 33.4395 20 33.4395V29.4395Z" fill="#28231F" mask="url(#path-1-inside-1_758_15101)"/>
<path d="M16.5312 13.9661C16.5762 13.5721 16.8203 13.2026 17.2248 12.9894L17.6711 12.7542C18.3415 12.4008 19.1988 12.6105 19.5859 13.2226L20.8441 15.2122C21.2312 15.8243 21.0015 16.607 20.3311 16.9603L19.8848 17.1956C19.3549 17.4748 18.7084 17.4024 18.2695 17.0577C18.1261 17.068 17.9888 17.095 17.8594 17.1387C17.4749 17.2685 17.1755 17.5406 16.9943 17.9251C16.8132 18.3095 16.7573 18.7913 16.8329 19.3172C16.9085 19.843 17.1127 20.3924 17.4227 20.9046C17.7328 21.4169 18.1368 21.872 18.59 22.2197C19.0432 22.5674 19.5279 22.794 19.9906 22.8747C20.4533 22.9553 20.876 22.8868 21.2119 22.6766C21.3276 22.6042 21.4315 22.516 21.5224 22.4135C21.2013 21.8433 21.3926 21.1315 21.9902 20.7662L22.4184 20.5045C23.0617 20.1113 23.9324 20.2687 24.3631 20.856L25.7629 22.7651C26.1936 23.3524 26.0212 24.1473 25.3779 24.5405L24.9497 24.8022C24.6272 24.9993 24.2476 25.058 23.8949 24.9936C23.6935 25.2326 23.4597 25.4366 23.1966 25.6012C22.4964 26.0393 21.6154 26.1822 20.6508 26.014C19.6862 25.8459 18.6758 25.3734 17.7311 24.6486C16.7864 23.9238 15.9443 22.9751 15.2978 21.9073C14.6514 20.8395 14.2259 19.6942 14.0683 18.598C13.9107 17.5019 14.0271 16.4975 14.4048 15.6961C14.7824 14.8947 15.4065 14.3273 16.2081 14.0568C16.3134 14.0213 16.4211 13.9911 16.5312 13.9661Z" fill="white"/>
</svg>
