<svg width="41" height="40" viewBox="0 0 41 40" fill="none" xmlns="http://www.w3.org/2000/svg">
<rect x="6.5" y="6" width="28" height="28" rx="14" fill="white"/>
<path d="M27.5 20.5C28.2601 19.6744 28.5 18.8619 28.5 17.6667C28.5 15.0893 26.351 13 23.7 13C22.5023 13 21.407 13.4265 20.5662 14.1318C20.5279 14.1638 20.4721 14.1638 20.4338 14.1318C19.593 13.4265 18.4977 13 17.3 13C14.649 13 12.5 15.0893 12.5 17.6667C12.5 19.1947 13.2554 20.5511 14.4228 21.4024L20.4318 26.9377C20.47 26.9729 20.5289 26.973 20.5672 26.9379L26.7129 21.2997C26.9065 21.1478 27.0876 20.9816 27.2547 20.8027L27.2818 20.7778L27.5 20.5Z" stroke="#28231F" stroke-width="2"/>
</svg>
